<svg width="64" height="77" viewBox="0 0 64 77" fill="none" xmlns="http://www.w3.org/2000/svg">
<path d="M56.4375 0C59.0208 0 60.7917 0.291667 61.75 0.875C62.7083 1.45833 63.1875 2.47917 63.1875 3.9375V27.9375C63.1875 29.3542 62.5417 30.375 61.25 31C60 31.5833 57.8958 31.875 54.9375 31.875C52.9792 31.875 51.4583 31.75 50.375 31.5C49.3333 31.2083 48.6042 30.7917 48.1875 30.25C47.7708 29.7083 47.5625 28.9375 47.5625 27.9375C47.5625 23.7708 46.4167 20.4375 44.125 17.9375C41.875 15.4375 38.6458 14.1875 34.4375 14.1875C28.6458 14.1875 24.25 16.2708 21.25 20.4375C18.25 24.6042 16.75 30.6042 16.75 38.4375C16.75 46.1875 18.3333 52.1875 21.5 56.4375C24.7083 60.6458 29.2292 62.75 35.0625 62.75C38.6875 62.75 42.1667 62.2708 45.5 61.3125C48.8333 60.3125 52.4583 58.8125 56.375 56.8125C57.0417 56.4792 57.6667 56.3125 58.25 56.3125C60.2083 56.3125 61.8333 58.0417 63.125 61.5C63.7083 63.0833 64 64.5 64 65.75C64 67.875 63.0417 69.3958 61.125 70.3125C52.2083 74.7292 43.3125 76.9375 34.4375 76.9375C27.6042 76.9375 21.5833 75.375 16.375 72.25C11.1667 69.125 7.125 64.6667 4.25 58.875C1.41667 53.0417 0 46.2292 0 38.4375C0 30.6875 1.39583 23.9167 4.1875 18.125C6.97917 12.2917 10.8333 7.8125 15.75 4.6875C20.7083 1.5625 26.3125 0 32.5625 0C39.8542 0 45.2708 2.625 48.8125 7.875V3.9375C48.8125 2.52083 49.4167 1.52083 50.625 0.9375C51.8333 0.3125 53.7708 0 56.4375 0Z" fill="#FF9300"/>
</svg>
