<svg width="78" height="76" viewBox="0 0 78 76" fill="none" xmlns="http://www.w3.org/2000/svg">
<path d="M74.0625 0C75.0625 0 75.8333 0.1875 76.375 0.5625C76.9167 0.895833 77.3125 1.52083 77.5625 2.4375C77.8542 3.35417 78 4.6875 78 6.4375C78 8.1875 77.8542 9.52083 77.5625 10.4375C77.3125 11.3542 76.9167 11.9792 76.375 12.3125C75.8333 12.6458 75.0625 12.8125 74.0625 12.8125H69.8125L47.125 71.5C46.5417 73 45.6458 74.0417 44.4375 74.625C43.2292 75.25 41.3542 75.5625 38.8125 75.5625C36.2708 75.5625 34.3958 75.25 33.1875 74.625C32.0208 74 31.1667 72.9583 30.625 71.5L8.75 12.8125H3.9375C2.9375 12.8125 2.16667 12.6458 1.625 12.3125C1.08333 11.9792 0.6875 11.3542 0.4375 10.4375C0.145833 9.52083 0 8.1875 0 6.4375C0 4.6875 0.145833 3.35417 0.4375 2.4375C0.6875 1.52083 1.08333 0.895833 1.625 0.5625C2.16667 0.1875 2.9375 0 3.9375 0H31.0625C32.0625 0 32.8333 0.1875 33.375 0.5625C33.9167 0.895833 34.3125 1.52083 34.5625 2.4375C34.8542 3.35417 35 4.6875 35 6.4375C35 8.1875 34.8542 9.52083 34.5625 10.4375C34.3125 11.3542 33.9167 11.9792 33.375 12.3125C32.8333 12.6458 32.0625 12.8125 31.0625 12.8125H25.5L38.9375 51.125L53.25 12.8125H48.8125C47.8125 12.8125 47.0417 12.6458 46.5 12.3125C45.9583 11.9792 45.5417 11.3542 45.25 10.4375C45 9.52083 44.875 8.1875 44.875 6.4375C44.875 4.6875 45 3.35417 45.25 2.4375C45.5417 1.52083 45.9583 0.895833 46.5 0.5625C47.0417 0.1875 47.8125 0 48.8125 0H74.0625Z" fill="#FF9300"/>
</svg>
