<svg width="59" height="75" viewBox="0 0 59 75" fill="none" xmlns="http://www.w3.org/2000/svg">
<path d="M54.9375 0C55.9375 0 56.7083 0.1875 57.25 0.5625C57.7917 0.895833 58.1875 1.52083 58.4375 2.4375C58.7292 3.35417 58.875 4.6875 58.875 6.4375C58.875 8.97917 58.3958 10.8958 57.4375 12.1875L21.5625 60.75H44.5V46.875C44.5 45.4583 45.1042 44.4583 46.3125 43.875C47.5208 43.25 49.4583 42.9375 52.125 42.9375C54.7083 42.9375 56.4792 43.2292 57.4375 43.8125C58.3958 44.3958 58.875 45.4167 58.875 46.875V70.125C58.875 71.5417 58.5625 72.5833 57.9375 73.25C57.3125 73.875 56.2708 74.1875 54.8125 74.1875H3.9375C2.9375 74.1875 2.16667 74.0208 1.625 73.6875C1.08333 73.3542 0.666667 72.7292 0.375 71.8125C0.125 70.8958 0 69.5625 0 67.8125C0 65.0625 0.416667 63.125 1.25 62L37.125 13.4375H16.25V26.0625C16.25 27.4792 15.6458 28.5 14.4375 29.125C13.2292 29.7083 11.2917 30 8.625 30C6.04167 30 4.27083 29.7083 3.3125 29.125C2.35417 28.5417 1.875 27.5208 1.875 26.0625V4.0625C1.875 2.60417 2.1875 1.5625 2.8125 0.9375C3.47917 0.3125 4.52083 0 5.9375 0H54.9375Z" fill="#FF9300"/>
</svg>
